<?xml version="1.0" encoding="utf-8" standalone="no"?>
<!DOCTYPE svg PUBLIC "-//W3C//DTD SVG 1.1//EN"
  "http://www.w3.org/Graphics/SVG/1.1/DTD/svg11.dtd">
<svg xmlns:xlink="http://www.w3.org/1999/xlink" width="784.46125pt" height="264.634375pt" viewBox="0 0 784.46125 264.634375" xmlns="http://www.w3.org/2000/svg" version="1.1">
 <metadata>
  <rdf:RDF xmlns:dc="http://purl.org/dc/elements/1.1/" xmlns:cc="http://creativecommons.org/ns#" xmlns:rdf="http://www.w3.org/1999/02/22-rdf-syntax-ns#">
   <cc:Work>
    <dc:type rdf:resource="http://purl.org/dc/dcmitype/StillImage"/>
    <dc:date>2026-04-19T20:25:11.477852</dc:date>
    <dc:format>image/svg+xml</dc:format>
    <dc:creator>
     <cc:Agent>
      <dc:title>Matplotlib v3.10.8, https://matplotlib.org/</dc:title>
     </cc:Agent>
    </dc:creator>
   </cc:Work>
  </rdf:RDF>
 </metadata>
 <defs>
  <style type="text/css">*{stroke-linejoin: round; stroke-linecap: butt}</style>
 </defs>
 <g id="figure_1">
  <g id="patch_1">
   <path d="M 0 264.634375 
L 784.46125 264.634375 
L 784.46125 0 
L 0 0 
z
" style="fill: #ffffff"/>
  </g>
  <g id="axes_1">
   <g id="patch_2">
    <path d="M 43.78125 227.078125 
L 385.474908 227.078125 
L 385.474908 22.318125 
L 43.78125 22.318125 
z
" style="fill: #ffffff"/>
   </g>
   <g id="matplotlib.axis_1">
    <g id="xtick_1">
     <g id="line2d_1">
      <path d="M 57.407071 227.078125 
L 57.407071 22.318125 
" clip-path="url(#p6310bb8087)" style="fill: none; stroke: #b0b0b0; stroke-opacity: 0.3; stroke-width: 0.8; stroke-linecap: square"/>
     </g>
     <g id="line2d_2">
      <defs>
       <path id="m313163af83" d="M 0 0 
L 0 3.5 
" style="stroke: #000000; stroke-width: 0.8"/>
      </defs>
      <g>
       <use xlink:href="#m313163af83" x="57.407071" y="227.078125" style="stroke: #000000; stroke-width: 0.8"/>
      </g>
     </g>
     <g id="text_1">
      <!-- 0 -->
      <g transform="translate(54.225821 241.676562) scale(0.1 -0.1)">
       <defs>
        <path id="DejaVuSans-30" d="M 2034 4250 
Q 1547 4250 1301 3770 
Q 1056 3291 1056 2328 
Q 1056 1369 1301 889 
Q 1547 409 2034 409 
Q 2525 409 2770 889 
Q 3016 1369 3016 2328 
Q 3016 3291 2770 3770 
Q 2525 4250 2034 4250 
z
M 2034 4750 
Q 2819 4750 3233 4129 
Q 3647 3509 3647 2328 
Q 3647 1150 3233 529 
Q 2819 -91 2034 -91 
Q 1250 -91 836 529 
Q 422 1150 422 2328 
Q 422 3509 836 4129 
Q 1250 4750 2034 4750 
z
" transform="scale(0.015625)"/>
       </defs>
       <use xlink:href="#DejaVuSans-30"/>
      </g>
     </g>
    </g>
    <g id="xtick_2">
     <g id="line2d_3">
      <path d="M 95.521254 227.078125 
L 95.521254 22.318125 
" clip-path="url(#p6310bb8087)" style="fill: none; stroke: #b0b0b0; stroke-opacity: 0.3; stroke-width: 0.8; stroke-linecap: square"/>
     </g>
     <g id="line2d_4">
      <g>
       <use xlink:href="#m313163af83" x="95.521254" y="227.078125" style="stroke: #000000; stroke-width: 0.8"/>
      </g>
     </g>
     <g id="text_2">
      <!-- 100 -->
      <g transform="translate(85.977504 241.676562) scale(0.1 -0.1)">
       <defs>
        <path id="DejaVuSans-31" d="M 794 531 
L 1825 531 
L 1825 4091 
L 703 3866 
L 703 4441 
L 1819 4666 
L 2450 4666 
L 2450 531 
L 3481 531 
L 3481 0 
L 794 0 
L 794 531 
z
" transform="scale(0.015625)"/>
       </defs>
       <use xlink:href="#DejaVuSans-31"/>
       <use xlink:href="#DejaVuSans-30" transform="translate(63.623047 0)"/>
       <use xlink:href="#DejaVuSans-30" transform="translate(127.246094 0)"/>
      </g>
     </g>
    </g>
    <g id="xtick_3">
     <g id="line2d_5">
      <path d="M 133.635438 227.078125 
L 133.635438 22.318125 
" clip-path="url(#p6310bb8087)" style="fill: none; stroke: #b0b0b0; stroke-opacity: 0.3; stroke-width: 0.8; stroke-linecap: square"/>
     </g>
     <g id="line2d_6">
      <g>
       <use xlink:href="#m313163af83" x="133.635438" y="227.078125" style="stroke: #000000; stroke-width: 0.8"/>
      </g>
     </g>
     <g id="text_3">
      <!-- 200 -->
      <g transform="translate(124.091688 241.676562) scale(0.1 -0.1)">
       <defs>
        <path id="DejaVuSans-32" d="M 1228 531 
L 3431 531 
L 3431 0 
L 469 0 
L 469 531 
Q 828 903 1448 1529 
Q 2069 2156 2228 2338 
Q 2531 2678 2651 2914 
Q 2772 3150 2772 3378 
Q 2772 3750 2511 3984 
Q 2250 4219 1831 4219 
Q 1534 4219 1204 4116 
Q 875 4013 500 3803 
L 500 4441 
Q 881 4594 1212 4672 
Q 1544 4750 1819 4750 
Q 2544 4750 2975 4387 
Q 3406 4025 3406 3419 
Q 3406 3131 3298 2873 
Q 3191 2616 2906 2266 
Q 2828 2175 2409 1742 
Q 1991 1309 1228 531 
z
" transform="scale(0.015625)"/>
       </defs>
       <use xlink:href="#DejaVuSans-32"/>
       <use xlink:href="#DejaVuSans-30" transform="translate(63.623047 0)"/>
       <use xlink:href="#DejaVuSans-30" transform="translate(127.246094 0)"/>
      </g>
     </g>
    </g>
    <g id="xtick_4">
     <g id="line2d_7">
      <path d="M 171.749622 227.078125 
L 171.749622 22.318125 
" clip-path="url(#p6310bb8087)" style="fill: none; stroke: #b0b0b0; stroke-opacity: 0.3; stroke-width: 0.8; stroke-linecap: square"/>
     </g>
     <g id="line2d_8">
      <g>
       <use xlink:href="#m313163af83" x="171.749622" y="227.078125" style="stroke: #000000; stroke-width: 0.8"/>
      </g>
     </g>
     <g id="text_4">
      <!-- 300 -->
      <g transform="translate(162.205872 241.676562) scale(0.1 -0.1)">
       <defs>
        <path id="DejaVuSans-33" d="M 2597 2516 
Q 3050 2419 3304 2112 
Q 3559 1806 3559 1356 
Q 3559 666 3084 287 
Q 2609 -91 1734 -91 
Q 1441 -91 1130 -33 
Q 819 25 488 141 
L 488 750 
Q 750 597 1062 519 
Q 1375 441 1716 441 
Q 2309 441 2620 675 
Q 2931 909 2931 1356 
Q 2931 1769 2642 2001 
Q 2353 2234 1838 2234 
L 1294 2234 
L 1294 2753 
L 1863 2753 
Q 2328 2753 2575 2939 
Q 2822 3125 2822 3475 
Q 2822 3834 2567 4026 
Q 2313 4219 1838 4219 
Q 1578 4219 1281 4162 
Q 984 4106 628 3988 
L 628 4550 
Q 988 4650 1302 4700 
Q 1616 4750 1894 4750 
Q 2613 4750 3031 4423 
Q 3450 4097 3450 3541 
Q 3450 3153 3228 2886 
Q 3006 2619 2597 2516 
z
" transform="scale(0.015625)"/>
       </defs>
       <use xlink:href="#DejaVuSans-33"/>
       <use xlink:href="#DejaVuSans-30" transform="translate(63.623047 0)"/>
       <use xlink:href="#DejaVuSans-30" transform="translate(127.246094 0)"/>
      </g>
     </g>
    </g>
    <g id="xtick_5">
     <g id="line2d_9">
      <path d="M 209.863806 227.078125 
L 209.863806 22.318125 
" clip-path="url(#p6310bb8087)" style="fill: none; stroke: #b0b0b0; stroke-opacity: 0.3; stroke-width: 0.8; stroke-linecap: square"/>
     </g>
     <g id="line2d_10">
      <g>
       <use xlink:href="#m313163af83" x="209.863806" y="227.078125" style="stroke: #000000; stroke-width: 0.8"/>
      </g>
     </g>
     <g id="text_5">
      <!-- 400 -->
      <g transform="translate(200.320056 241.676562) scale(0.1 -0.1)">
       <defs>
        <path id="DejaVuSans-34" d="M 2419 4116 
L 825 1625 
L 2419 1625 
L 2419 4116 
z
M 2253 4666 
L 3047 4666 
L 3047 1625 
L 3713 1625 
L 3713 1100 
L 3047 1100 
L 3047 0 
L 2419 0 
L 2419 1100 
L 313 1100 
L 313 1709 
L 2253 4666 
z
" transform="scale(0.015625)"/>
       </defs>
       <use xlink:href="#DejaVuSans-34"/>
       <use xlink:href="#DejaVuSans-30" transform="translate(63.623047 0)"/>
       <use xlink:href="#DejaVuSans-30" transform="translate(127.246094 0)"/>
      </g>
     </g>
    </g>
    <g id="xtick_6">
     <g id="line2d_11">
      <path d="M 247.97799 227.078125 
L 247.97799 22.318125 
" clip-path="url(#p6310bb8087)" style="fill: none; stroke: #b0b0b0; stroke-opacity: 0.3; stroke-width: 0.8; stroke-linecap: square"/>
     </g>
     <g id="line2d_12">
      <g>
       <use xlink:href="#m313163af83" x="247.97799" y="227.078125" style="stroke: #000000; stroke-width: 0.8"/>
      </g>
     </g>
     <g id="text_6">
      <!-- 500 -->
      <g transform="translate(238.43424 241.676562) scale(0.1 -0.1)">
       <defs>
        <path id="DejaVuSans-35" d="M 691 4666 
L 3169 4666 
L 3169 4134 
L 1269 4134 
L 1269 2991 
Q 1406 3038 1543 3061 
Q 1681 3084 1819 3084 
Q 2600 3084 3056 2656 
Q 3513 2228 3513 1497 
Q 3513 744 3044 326 
Q 2575 -91 1722 -91 
Q 1428 -91 1123 -41 
Q 819 9 494 109 
L 494 744 
Q 775 591 1075 516 
Q 1375 441 1709 441 
Q 2250 441 2565 725 
Q 2881 1009 2881 1497 
Q 2881 1984 2565 2268 
Q 2250 2553 1709 2553 
Q 1456 2553 1204 2497 
Q 953 2441 691 2322 
L 691 4666 
z
" transform="scale(0.015625)"/>
       </defs>
       <use xlink:href="#DejaVuSans-35"/>
       <use xlink:href="#DejaVuSans-30" transform="translate(63.623047 0)"/>
       <use xlink:href="#DejaVuSans-30" transform="translate(127.246094 0)"/>
      </g>
     </g>
    </g>
    <g id="xtick_7">
     <g id="line2d_13">
      <path d="M 286.092173 227.078125 
L 286.092173 22.318125 
" clip-path="url(#p6310bb8087)" style="fill: none; stroke: #b0b0b0; stroke-opacity: 0.3; stroke-width: 0.8; stroke-linecap: square"/>
     </g>
     <g id="line2d_14">
      <g>
       <use xlink:href="#m313163af83" x="286.092173" y="227.078125" style="stroke: #000000; stroke-width: 0.8"/>
      </g>
     </g>
     <g id="text_7">
      <!-- 600 -->
      <g transform="translate(276.548423 241.676562) scale(0.1 -0.1)">
       <defs>
        <path id="DejaVuSans-36" d="M 2113 2584 
Q 1688 2584 1439 2293 
Q 1191 2003 1191 1497 
Q 1191 994 1439 701 
Q 1688 409 2113 409 
Q 2538 409 2786 701 
Q 3034 994 3034 1497 
Q 3034 2003 2786 2293 
Q 2538 2584 2113 2584 
z
M 3366 4563 
L 3366 3988 
Q 3128 4100 2886 4159 
Q 2644 4219 2406 4219 
Q 1781 4219 1451 3797 
Q 1122 3375 1075 2522 
Q 1259 2794 1537 2939 
Q 1816 3084 2150 3084 
Q 2853 3084 3261 2657 
Q 3669 2231 3669 1497 
Q 3669 778 3244 343 
Q 2819 -91 2113 -91 
Q 1303 -91 875 529 
Q 447 1150 447 2328 
Q 447 3434 972 4092 
Q 1497 4750 2381 4750 
Q 2619 4750 2861 4703 
Q 3103 4656 3366 4563 
z
" transform="scale(0.015625)"/>
       </defs>
       <use xlink:href="#DejaVuSans-36"/>
       <use xlink:href="#DejaVuSans-30" transform="translate(63.623047 0)"/>
       <use xlink:href="#DejaVuSans-30" transform="translate(127.246094 0)"/>
      </g>
     </g>
    </g>
    <g id="xtick_8">
     <g id="line2d_15">
      <path d="M 324.206357 227.078125 
L 324.206357 22.318125 
" clip-path="url(#p6310bb8087)" style="fill: none; stroke: #b0b0b0; stroke-opacity: 0.3; stroke-width: 0.8; stroke-linecap: square"/>
     </g>
     <g id="line2d_16">
      <g>
       <use xlink:href="#m313163af83" x="324.206357" y="227.078125" style="stroke: #000000; stroke-width: 0.8"/>
      </g>
     </g>
     <g id="text_8">
      <!-- 700 -->
      <g transform="translate(314.662607 241.676562) scale(0.1 -0.1)">
       <defs>
        <path id="DejaVuSans-37" d="M 525 4666 
L 3525 4666 
L 3525 4397 
L 1831 0 
L 1172 0 
L 2766 4134 
L 525 4134 
L 525 4666 
z
" transform="scale(0.015625)"/>
       </defs>
       <use xlink:href="#DejaVuSans-37"/>
       <use xlink:href="#DejaVuSans-30" transform="translate(63.623047 0)"/>
       <use xlink:href="#DejaVuSans-30" transform="translate(127.246094 0)"/>
      </g>
     </g>
    </g>
    <g id="xtick_9">
     <g id="line2d_17">
      <path d="M 362.320541 227.078125 
L 362.320541 22.318125 
" clip-path="url(#p6310bb8087)" style="fill: none; stroke: #b0b0b0; stroke-opacity: 0.3; stroke-width: 0.8; stroke-linecap: square"/>
     </g>
     <g id="line2d_18">
      <g>
       <use xlink:href="#m313163af83" x="362.320541" y="227.078125" style="stroke: #000000; stroke-width: 0.8"/>
      </g>
     </g>
     <g id="text_9">
      <!-- 800 -->
      <g transform="translate(352.776791 241.676562) scale(0.1 -0.1)">
       <defs>
        <path id="DejaVuSans-38" d="M 2034 2216 
Q 1584 2216 1326 1975 
Q 1069 1734 1069 1313 
Q 1069 891 1326 650 
Q 1584 409 2034 409 
Q 2484 409 2743 651 
Q 3003 894 3003 1313 
Q 3003 1734 2745 1975 
Q 2488 2216 2034 2216 
z
M 1403 2484 
Q 997 2584 770 2862 
Q 544 3141 544 3541 
Q 544 4100 942 4425 
Q 1341 4750 2034 4750 
Q 2731 4750 3128 4425 
Q 3525 4100 3525 3541 
Q 3525 3141 3298 2862 
Q 3072 2584 2669 2484 
Q 3125 2378 3379 2068 
Q 3634 1759 3634 1313 
Q 3634 634 3220 271 
Q 2806 -91 2034 -91 
Q 1263 -91 848 271 
Q 434 634 434 1313 
Q 434 1759 690 2068 
Q 947 2378 1403 2484 
z
M 1172 3481 
Q 1172 3119 1398 2916 
Q 1625 2713 2034 2713 
Q 2441 2713 2670 2916 
Q 2900 3119 2900 3481 
Q 2900 3844 2670 4047 
Q 2441 4250 2034 4250 
Q 1625 4250 1398 4047 
Q 1172 3844 1172 3481 
z
" transform="scale(0.015625)"/>
       </defs>
       <use xlink:href="#DejaVuSans-38"/>
       <use xlink:href="#DejaVuSans-30" transform="translate(63.623047 0)"/>
       <use xlink:href="#DejaVuSans-30" transform="translate(127.246094 0)"/>
      </g>
     </g>
    </g>
    <g id="text_10">
     <!-- step -->
     <g transform="translate(203.812454 255.354687) scale(0.1 -0.1)">
      <defs>
       <path id="DejaVuSans-73" d="M 2834 3397 
L 2834 2853 
Q 2591 2978 2328 3040 
Q 2066 3103 1784 3103 
Q 1356 3103 1142 2972 
Q 928 2841 928 2578 
Q 928 2378 1081 2264 
Q 1234 2150 1697 2047 
L 1894 2003 
Q 2506 1872 2764 1633 
Q 3022 1394 3022 966 
Q 3022 478 2636 193 
Q 2250 -91 1575 -91 
Q 1294 -91 989 -36 
Q 684 19 347 128 
L 347 722 
Q 666 556 975 473 
Q 1284 391 1588 391 
Q 1994 391 2212 530 
Q 2431 669 2431 922 
Q 2431 1156 2273 1281 
Q 2116 1406 1581 1522 
L 1381 1569 
Q 847 1681 609 1914 
Q 372 2147 372 2553 
Q 372 3047 722 3315 
Q 1072 3584 1716 3584 
Q 2034 3584 2315 3537 
Q 2597 3491 2834 3397 
z
" transform="scale(0.015625)"/>
       <path id="DejaVuSans-74" d="M 1172 4494 
L 1172 3500 
L 2356 3500 
L 2356 3053 
L 1172 3053 
L 1172 1153 
Q 1172 725 1289 603 
Q 1406 481 1766 481 
L 2356 481 
L 2356 0 
L 1766 0 
Q 1100 0 847 248 
Q 594 497 594 1153 
L 594 3053 
L 172 3053 
L 172 3500 
L 594 3500 
L 594 4494 
L 1172 4494 
z
" transform="scale(0.015625)"/>
       <path id="DejaVuSans-65" d="M 3597 1894 
L 3597 1613 
L 953 1613 
Q 991 1019 1311 708 
Q 1631 397 2203 397 
Q 2534 397 2845 478 
Q 3156 559 3463 722 
L 3463 178 
Q 3153 47 2828 -22 
Q 2503 -91 2169 -91 
Q 1331 -91 842 396 
Q 353 884 353 1716 
Q 353 2575 817 3079 
Q 1281 3584 2069 3584 
Q 2775 3584 3186 3129 
Q 3597 2675 3597 1894 
z
M 3022 2063 
Q 3016 2534 2758 2815 
Q 2500 3097 2075 3097 
Q 1594 3097 1305 2825 
Q 1016 2553 972 2059 
L 3022 2063 
z
" transform="scale(0.015625)"/>
       <path id="DejaVuSans-70" d="M 1159 525 
L 1159 -1331 
L 581 -1331 
L 581 3500 
L 1159 3500 
L 1159 2969 
Q 1341 3281 1617 3432 
Q 1894 3584 2278 3584 
Q 2916 3584 3314 3078 
Q 3713 2572 3713 1747 
Q 3713 922 3314 415 
Q 2916 -91 2278 -91 
Q 1894 -91 1617 61 
Q 1341 213 1159 525 
z
M 3116 1747 
Q 3116 2381 2855 2742 
Q 2594 3103 2138 3103 
Q 1681 3103 1420 2742 
Q 1159 2381 1159 1747 
Q 1159 1113 1420 752 
Q 1681 391 2138 391 
Q 2594 391 2855 752 
Q 3116 1113 3116 1747 
z
" transform="scale(0.015625)"/>
      </defs>
      <use xlink:href="#DejaVuSans-73"/>
      <use xlink:href="#DejaVuSans-74" transform="translate(52.099609 0)"/>
      <use xlink:href="#DejaVuSans-65" transform="translate(91.308594 0)"/>
      <use xlink:href="#DejaVuSans-70" transform="translate(152.832031 0)"/>
     </g>
    </g>
   </g>
   <g id="matplotlib.axis_2">
    <g id="ytick_1">
     <g id="line2d_19">
      <path d="M 43.78125 197.30384 
L 385.474908 197.30384 
" clip-path="url(#p6310bb8087)" style="fill: none; stroke: #b0b0b0; stroke-opacity: 0.3; stroke-width: 0.8; stroke-linecap: square"/>
     </g>
     <g id="line2d_20">
      <defs>
       <path id="m476cd0e049" d="M 0 0 
L -3.5 0 
" style="stroke: #000000; stroke-width: 0.8"/>
      </defs>
      <g>
       <use xlink:href="#m476cd0e049" x="43.78125" y="197.30384" style="stroke: #000000; stroke-width: 0.8"/>
      </g>
     </g>
     <g id="text_11">
      <!-- 0.5 -->
      <g transform="translate(20.878125 201.103059) scale(0.1 -0.1)">
       <defs>
        <path id="DejaVuSans-2e" d="M 684 794 
L 1344 794 
L 1344 0 
L 684 0 
L 684 794 
z
" transform="scale(0.015625)"/>
       </defs>
       <use xlink:href="#DejaVuSans-30"/>
       <use xlink:href="#DejaVuSans-2e" transform="translate(63.623047 0)"/>
       <use xlink:href="#DejaVuSans-35" transform="translate(95.410156 0)"/>
      </g>
     </g>
    </g>
    <g id="ytick_2">
     <g id="line2d_21">
      <path d="M 43.78125 159.045389 
L 385.474908 159.045389 
" clip-path="url(#p6310bb8087)" style="fill: none; stroke: #b0b0b0; stroke-opacity: 0.3; stroke-width: 0.8; stroke-linecap: square"/>
     </g>
     <g id="line2d_22">
      <g>
       <use xlink:href="#m476cd0e049" x="43.78125" y="159.045389" style="stroke: #000000; stroke-width: 0.8"/>
      </g>
     </g>
     <g id="text_12">
      <!-- 1.0 -->
      <g transform="translate(20.878125 162.844608) scale(0.1 -0.1)">
       <use xlink:href="#DejaVuSans-31"/>
       <use xlink:href="#DejaVuSans-2e" transform="translate(63.623047 0)"/>
       <use xlink:href="#DejaVuSans-30" transform="translate(95.410156 0)"/>
      </g>
     </g>
    </g>
    <g id="ytick_3">
     <g id="line2d_23">
      <path d="M 43.78125 120.786938 
L 385.474908 120.786938 
" clip-path="url(#p6310bb8087)" style="fill: none; stroke: #b0b0b0; stroke-opacity: 0.3; stroke-width: 0.8; stroke-linecap: square"/>
     </g>
     <g id="line2d_24">
      <g>
       <use xlink:href="#m476cd0e049" x="43.78125" y="120.786938" style="stroke: #000000; stroke-width: 0.8"/>
      </g>
     </g>
     <g id="text_13">
      <!-- 1.5 -->
      <g transform="translate(20.878125 124.586157) scale(0.1 -0.1)">
       <use xlink:href="#DejaVuSans-31"/>
       <use xlink:href="#DejaVuSans-2e" transform="translate(63.623047 0)"/>
       <use xlink:href="#DejaVuSans-35" transform="translate(95.410156 0)"/>
      </g>
     </g>
    </g>
    <g id="ytick_4">
     <g id="line2d_25">
      <path d="M 43.78125 82.528487 
L 385.474908 82.528487 
" clip-path="url(#p6310bb8087)" style="fill: none; stroke: #b0b0b0; stroke-opacity: 0.3; stroke-width: 0.8; stroke-linecap: square"/>
     </g>
     <g id="line2d_26">
      <g>
       <use xlink:href="#m476cd0e049" x="43.78125" y="82.528487" style="stroke: #000000; stroke-width: 0.8"/>
      </g>
     </g>
     <g id="text_14">
      <!-- 2.0 -->
      <g transform="translate(20.878125 86.327706) scale(0.1 -0.1)">
       <use xlink:href="#DejaVuSans-32"/>
       <use xlink:href="#DejaVuSans-2e" transform="translate(63.623047 0)"/>
       <use xlink:href="#DejaVuSans-30" transform="translate(95.410156 0)"/>
      </g>
     </g>
    </g>
    <g id="ytick_5">
     <g id="line2d_27">
      <path d="M 43.78125 44.270036 
L 385.474908 44.270036 
" clip-path="url(#p6310bb8087)" style="fill: none; stroke: #b0b0b0; stroke-opacity: 0.3; stroke-width: 0.8; stroke-linecap: square"/>
     </g>
     <g id="line2d_28">
      <g>
       <use xlink:href="#m476cd0e049" x="43.78125" y="44.270036" style="stroke: #000000; stroke-width: 0.8"/>
      </g>
     </g>
     <g id="text_15">
      <!-- 2.5 -->
      <g transform="translate(20.878125 48.069255) scale(0.1 -0.1)">
       <use xlink:href="#DejaVuSans-32"/>
       <use xlink:href="#DejaVuSans-2e" transform="translate(63.623047 0)"/>
       <use xlink:href="#DejaVuSans-35" transform="translate(95.410156 0)"/>
      </g>
     </g>
    </g>
    <g id="text_16">
     <!-- loss -->
     <g transform="translate(14.798438 134.355937) rotate(-90) scale(0.1 -0.1)">
      <defs>
       <path id="DejaVuSans-6c" d="M 603 4863 
L 1178 4863 
L 1178 0 
L 603 0 
L 603 4863 
z
" transform="scale(0.015625)"/>
       <path id="DejaVuSans-6f" d="M 1959 3097 
Q 1497 3097 1228 2736 
Q 959 2375 959 1747 
Q 959 1119 1226 758 
Q 1494 397 1959 397 
Q 2419 397 2687 759 
Q 2956 1122 2956 1747 
Q 2956 2369 2687 2733 
Q 2419 3097 1959 3097 
z
M 1959 3584 
Q 2709 3584 3137 3096 
Q 3566 2609 3566 1747 
Q 3566 888 3137 398 
Q 2709 -91 1959 -91 
Q 1206 -91 779 398 
Q 353 888 353 1747 
Q 353 2609 779 3096 
Q 1206 3584 1959 3584 
z
" transform="scale(0.015625)"/>
      </defs>
      <use xlink:href="#DejaVuSans-6c"/>
      <use xlink:href="#DejaVuSans-6f" transform="translate(27.783203 0)"/>
      <use xlink:href="#DejaVuSans-73" transform="translate(88.964844 0)"/>
      <use xlink:href="#DejaVuSans-73" transform="translate(141.064453 0)"/>
     </g>
    </g>
   </g>
   <g id="line2d_29">
    <path d="M 59.31278 31.625398 
L 61.218489 100.670632 
L 63.124198 149.086872 
L 65.029907 186.809718 
L 66.935617 196.438277 
L 68.841326 201.281931 
L 70.747035 203.56125 
L 72.652744 206.29785 
L 74.558453 207.167077 
L 76.464163 207.826866 
L 78.369872 208.126298 
L 80.275581 208.305529 
L 82.18129 208.079233 
L 84.086999 208.926563 
L 85.992709 209.009497 
L 87.898418 208.813341 
L 89.804127 209.500153 
L 91.709836 209.05304 
L 93.615545 209.861131 
L 95.521254 210.330269 
L 97.426964 209.009435 
L 99.332673 209.750145 
L 101.238382 209.733166 
L 103.144091 209.350754 
L 105.0498 209.562941 
L 106.95551 212.486867 
L 108.861219 211.996896 
L 110.766928 211.984215 
L 112.672637 212.277147 
L 114.578346 211.386131 
L 116.484056 212.815874 
L 118.389765 212.721712 
L 120.295474 212.597521 
L 122.201183 212.492342 
L 124.106892 212.062461 
L 126.012602 212.189524 
L 127.918311 212.253515 
L 129.82402 211.332776 
L 131.729729 212.844065 
L 133.635438 212.632914 
L 135.541147 213.113626 
L 137.446857 211.720993 
L 139.352566 212.582892 
L 141.258275 213.222781 
L 143.163984 212.799688 
L 145.069693 212.534637 
L 146.975403 212.651599 
L 148.881112 213.14077 
L 150.786821 212.999962 
L 152.69253 212.838329 
L 154.598239 215.630328 
L 156.503949 214.779576 
L 158.409658 215.315719 
L 160.315367 215.524879 
L 162.221076 215.055053 
L 164.126785 215.14041 
L 166.032494 216.297235 
L 167.938204 215.172343 
L 169.843913 216.028188 
L 171.749622 215.657074 
L 173.655331 215.82883 
L 175.56104 215.860146 
L 177.46675 215.858187 
L 179.372459 215.557425 
L 181.278168 215.563027 
L 183.183877 215.57978 
L 185.089586 216.066267 
L 186.995296 216.118754 
L 188.901005 216.103656 
L 190.806714 216.237216 
L 192.712423 215.956575 
L 194.618132 215.433213 
L 196.523842 216.03249 
L 198.429551 215.699288 
L 200.33526 215.562943 
" clip-path="url(#p6310bb8087)" style="fill: none; stroke: #fdae6b; stroke-width: 1.6; stroke-linecap: square"/>
   </g>
   <g id="line2d_30">
    <path d="M 59.31278 41.256444 
L 61.218489 122.683712 
L 63.124198 175.856514 
L 65.029907 196.371033 
L 66.935617 200.922729 
L 68.841326 203.752591 
L 70.747035 205.124512 
L 72.652744 207.014811 
L 74.558453 208.255715 
L 76.464163 207.184083 
L 80.275581 208.803218 
L 82.18129 208.156914 
L 84.086999 207.897075 
L 85.992709 209.24877 
L 87.898418 209.728356 
L 89.804127 208.874891 
L 91.709836 209.375975 
L 93.615545 210.100786 
L 95.521254 208.490207 
L 97.426964 210.030388 
L 99.332673 209.518882 
L 103.144091 209.201874 
L 105.0498 210.531504 
L 106.95551 209.638029 
L 108.861219 209.906132 
L 110.766928 210.85823 
L 112.672637 209.686251 
L 114.578346 210.373928 
L 118.389765 210.084369 
L 120.295474 210.125595 
L 122.201183 210.948834 
L 124.106892 210.229045 
L 127.918311 210.650142 
L 129.82402 210.277211 
L 131.729729 210.553323 
L 133.635438 209.993924 
L 135.541147 210.917969 
L 141.258275 210.467405 
L 143.163984 211.210297 
L 145.069693 211.154893 
L 146.975403 210.206634 
L 148.881112 211.421223 
L 150.786821 210.92286 
L 152.69253 210.600842 
L 154.598239 210.863681 
L 156.503949 211.521821 
L 158.409658 210.240506 
L 162.221076 211.775868 
L 164.126785 213.112391 
L 166.032494 212.996425 
L 167.938204 213.021493 
L 169.843913 212.782569 
L 171.749622 212.902526 
L 175.56104 213.55923 
L 177.46675 212.823291 
L 179.372459 213.327219 
L 181.278168 213.189141 
L 183.183877 212.78302 
L 185.089586 212.83134 
L 186.995296 213.225145 
L 188.901005 212.74317 
L 190.806714 212.862519 
L 192.712423 212.751009 
L 194.618132 212.792322 
L 196.523842 213.3875 
L 198.429551 213.553873 
L 200.33526 213.149876 
L 202.240969 213.299116 
L 204.146678 212.706039 
L 206.052387 213.643305 
L 207.958097 212.723378 
L 209.863806 213.434908 
L 211.769515 213.439764 
L 213.675224 213.659602 
L 215.580933 213.06472 
L 217.486643 213.415913 
L 219.392352 213.35796 
L 223.20377 213.708971 
L 225.109479 213.586706 
L 227.015189 214.055688 
L 228.920898 213.262637 
L 230.826607 213.676418 
L 232.732316 213.810547 
L 234.638025 214.241849 
L 238.449444 213.497516 
L 240.355153 213.390526 
L 242.260862 213.398644 
L 244.166571 214.112135 
L 246.07228 213.241021 
L 247.97799 213.972093 
L 249.883699 213.653235 
L 251.789408 213.905409 
L 255.600826 213.438108 
L 257.506536 214.393883 
L 259.412245 214.189291 
L 261.317954 214.684923 
L 265.129372 213.405748 
L 267.035082 214.736316 
L 268.940791 216.214279 
L 270.8465 216.540218 
L 272.752209 216.655011 
L 274.657918 216.577251 
L 276.563627 216.895301 
L 278.469337 216.35652 
L 280.375046 216.027508 
L 282.280755 216.491119 
L 284.186464 216.314024 
L 286.092173 216.940237 
L 287.997883 217.195103 
L 289.903592 216.869241 
L 291.809301 216.779649 
L 293.71501 216.851167 
L 295.620719 216.602578 
L 297.526429 216.597242 
L 301.337847 216.806924 
L 303.243556 216.738894 
L 307.054974 217.051383 
L 308.960684 216.614285 
L 312.772102 217.035148 
L 314.677811 216.659533 
L 316.58352 217.222922 
L 318.48923 216.856018 
L 320.394939 217.249765 
L 322.300648 217.300081 
L 324.206357 217.012022 
L 326.112066 217.237152 
L 329.923485 217.157444 
L 331.829194 216.790084 
L 333.734903 217.37024 
L 335.640612 217.267433 
L 337.546322 217.446951 
L 339.452031 217.234908 
L 343.263449 217.521977 
L 345.169158 217.122518 
L 347.074867 217.212376 
L 348.980577 217.053473 
L 350.886286 217.581265 
L 354.697704 216.918134 
L 356.603413 217.541119 
L 358.509123 216.941288 
L 360.414832 217.770852 
L 362.320541 216.817117 
L 366.131959 217.375812 
L 368.037669 217.512365 
L 369.943378 217.167173 
L 369.943378 217.167173 
" clip-path="url(#p6310bb8087)" style="fill: none; stroke: #a1d99b; stroke-width: 1.6; stroke-linecap: square"/>
   </g>
   <g id="patch_3">
    <path d="M 43.78125 227.078125 
L 43.78125 22.318125 
" style="fill: none; stroke: #000000; stroke-width: 0.8; stroke-linejoin: miter; stroke-linecap: square"/>
   </g>
   <g id="patch_4">
    <path d="M 385.474908 227.078125 
L 385.474908 22.318125 
" style="fill: none; stroke: #000000; stroke-width: 0.8; stroke-linejoin: miter; stroke-linecap: square"/>
   </g>
   <g id="patch_5">
    <path d="M 43.78125 227.078125 
L 385.474908 227.078125 
" style="fill: none; stroke: #000000; stroke-width: 0.8; stroke-linejoin: miter; stroke-linecap: square"/>
   </g>
   <g id="patch_6">
    <path d="M 43.78125 22.318125 
L 385.474908 22.318125 
" style="fill: none; stroke: #000000; stroke-width: 0.8; stroke-linejoin: miter; stroke-linecap: square"/>
   </g>
   <g id="text_17">
    <!-- training loss — v2 vs v3 -->
    <g transform="translate(142.846516 16.318125) scale(0.12 -0.12)">
     <defs>
      <path id="DejaVuSans-72" d="M 2631 2963 
Q 2534 3019 2420 3045 
Q 2306 3072 2169 3072 
Q 1681 3072 1420 2755 
Q 1159 2438 1159 1844 
L 1159 0 
L 581 0 
L 581 3500 
L 1159 3500 
L 1159 2956 
Q 1341 3275 1631 3429 
Q 1922 3584 2338 3584 
Q 2397 3584 2469 3576 
Q 2541 3569 2628 3553 
L 2631 2963 
z
" transform="scale(0.015625)"/>
      <path id="DejaVuSans-61" d="M 2194 1759 
Q 1497 1759 1228 1600 
Q 959 1441 959 1056 
Q 959 750 1161 570 
Q 1363 391 1709 391 
Q 2188 391 2477 730 
Q 2766 1069 2766 1631 
L 2766 1759 
L 2194 1759 
z
M 3341 1997 
L 3341 0 
L 2766 0 
L 2766 531 
Q 2569 213 2275 61 
Q 1981 -91 1556 -91 
Q 1019 -91 701 211 
Q 384 513 384 1019 
Q 384 1609 779 1909 
Q 1175 2209 1959 2209 
L 2766 2209 
L 2766 2266 
Q 2766 2663 2505 2880 
Q 2244 3097 1772 3097 
Q 1472 3097 1187 3025 
Q 903 2953 641 2809 
L 641 3341 
Q 956 3463 1253 3523 
Q 1550 3584 1831 3584 
Q 2591 3584 2966 3190 
Q 3341 2797 3341 1997 
z
" transform="scale(0.015625)"/>
      <path id="DejaVuSans-69" d="M 603 3500 
L 1178 3500 
L 1178 0 
L 603 0 
L 603 3500 
z
M 603 4863 
L 1178 4863 
L 1178 4134 
L 603 4134 
L 603 4863 
z
" transform="scale(0.015625)"/>
      <path id="DejaVuSans-6e" d="M 3513 2113 
L 3513 0 
L 2938 0 
L 2938 2094 
Q 2938 2591 2744 2837 
Q 2550 3084 2163 3084 
Q 1697 3084 1428 2787 
Q 1159 2491 1159 1978 
L 1159 0 
L 581 0 
L 581 3500 
L 1159 3500 
L 1159 2956 
Q 1366 3272 1645 3428 
Q 1925 3584 2291 3584 
Q 2894 3584 3203 3211 
Q 3513 2838 3513 2113 
z
" transform="scale(0.015625)"/>
      <path id="DejaVuSans-67" d="M 2906 1791 
Q 2906 2416 2648 2759 
Q 2391 3103 1925 3103 
Q 1463 3103 1205 2759 
Q 947 2416 947 1791 
Q 947 1169 1205 825 
Q 1463 481 1925 481 
Q 2391 481 2648 825 
Q 2906 1169 2906 1791 
z
M 3481 434 
Q 3481 -459 3084 -895 
Q 2688 -1331 1869 -1331 
Q 1566 -1331 1297 -1286 
Q 1028 -1241 775 -1147 
L 775 -588 
Q 1028 -725 1275 -790 
Q 1522 -856 1778 -856 
Q 2344 -856 2625 -561 
Q 2906 -266 2906 331 
L 2906 616 
Q 2728 306 2450 153 
Q 2172 0 1784 0 
Q 1141 0 747 490 
Q 353 981 353 1791 
Q 353 2603 747 3093 
Q 1141 3584 1784 3584 
Q 2172 3584 2450 3431 
Q 2728 3278 2906 2969 
L 2906 3500 
L 3481 3500 
L 3481 434 
z
" transform="scale(0.015625)"/>
      <path id="DejaVuSans-20" transform="scale(0.015625)"/>
      <path id="DejaVuSans-2014" d="M 313 1978 
L 6088 1978 
L 6088 1528 
L 313 1528 
L 313 1978 
z
" transform="scale(0.015625)"/>
      <path id="DejaVuSans-76" d="M 191 3500 
L 800 3500 
L 1894 563 
L 2988 3500 
L 3597 3500 
L 2284 0 
L 1503 0 
L 191 3500 
z
" transform="scale(0.015625)"/>
     </defs>
     <use xlink:href="#DejaVuSans-74"/>
     <use xlink:href="#DejaVuSans-72" transform="translate(39.208984 0)"/>
     <use xlink:href="#DejaVuSans-61" transform="translate(80.322266 0)"/>
     <use xlink:href="#DejaVuSans-69" transform="translate(141.601562 0)"/>
     <use xlink:href="#DejaVuSans-6e" transform="translate(169.384766 0)"/>
     <use xlink:href="#DejaVuSans-69" transform="translate(232.763672 0)"/>
     <use xlink:href="#DejaVuSans-6e" transform="translate(260.546875 0)"/>
     <use xlink:href="#DejaVuSans-67" transform="translate(323.925781 0)"/>
     <use xlink:href="#DejaVuSans-20" transform="translate(387.402344 0)"/>
     <use xlink:href="#DejaVuSans-6c" transform="translate(419.189453 0)"/>
     <use xlink:href="#DejaVuSans-6f" transform="translate(446.972656 0)"/>
     <use xlink:href="#DejaVuSans-73" transform="translate(508.154297 0)"/>
     <use xlink:href="#DejaVuSans-73" transform="translate(560.253906 0)"/>
     <use xlink:href="#DejaVuSans-20" transform="translate(612.353516 0)"/>
     <use xlink:href="#DejaVuSans-2014" transform="translate(644.140625 0)"/>
     <use xlink:href="#DejaVuSans-20" transform="translate(744.140625 0)"/>
     <use xlink:href="#DejaVuSans-76" transform="translate(775.927734 0)"/>
     <use xlink:href="#DejaVuSans-32" transform="translate(835.107422 0)"/>
     <use xlink:href="#DejaVuSans-20" transform="translate(898.730469 0)"/>
     <use xlink:href="#DejaVuSans-76" transform="translate(930.517578 0)"/>
     <use xlink:href="#DejaVuSans-73" transform="translate(989.697266 0)"/>
     <use xlink:href="#DejaVuSans-20" transform="translate(1041.796875 0)"/>
     <use xlink:href="#DejaVuSans-76" transform="translate(1073.583984 0)"/>
     <use xlink:href="#DejaVuSans-33" transform="translate(1132.763672 0)"/>
    </g>
   </g>
   <g id="legend_1">
    <g id="line2d_31">
     <path d="M 219.41397 35.416562 
L 229.41397 35.416562 
L 239.41397 35.416562 
" style="fill: none; stroke: #fdae6b; stroke-width: 1.6; stroke-linecap: square"/>
    </g>
    <g id="text_18">
     <!-- v2 r=32 α=64 (n=1000) -->
     <g transform="translate(247.41397 38.916562) scale(0.1 -0.1)">
      <defs>
       <path id="DejaVuSans-3d" d="M 678 2906 
L 4684 2906 
L 4684 2381 
L 678 2381 
L 678 2906 
z
M 678 1631 
L 4684 1631 
L 4684 1100 
L 678 1100 
L 678 1631 
z
" transform="scale(0.015625)"/>
       <path id="DejaVuSans-3b1" d="M 2644 1628 
L 2506 2350 
Q 2366 3091 1809 3091 
Q 1391 3091 1200 2747 
Q 959 2316 959 1747 
Q 959 1059 1194 731 
Q 1431 397 1809 397 
Q 2228 397 2453 1063 
L 2644 1628 
z
M 2966 2584 
L 3275 3500 
L 3788 3500 
L 3147 1603 
L 3272 919 
Q 3300 766 3409 638 
Q 3538 488 3638 488 
L 3913 488 
L 3913 0 
L 3569 0 
Q 3275 0 3013 263 
Q 2884 394 2831 669 
Q 2688 322 2394 50 
Q 2256 -78 1809 -78 
Q 1075 -78 719 397 
Q 353 888 353 1747 
Q 353 2666 750 3097 
Q 1191 3578 1809 3578 
Q 2781 3578 2966 2584 
z
" transform="scale(0.015625)"/>
       <path id="DejaVuSans-28" d="M 1984 4856 
Q 1566 4138 1362 3434 
Q 1159 2731 1159 2009 
Q 1159 1288 1364 580 
Q 1569 -128 1984 -844 
L 1484 -844 
Q 1016 -109 783 600 
Q 550 1309 550 2009 
Q 550 2706 781 3412 
Q 1013 4119 1484 4856 
L 1984 4856 
z
" transform="scale(0.015625)"/>
       <path id="DejaVuSans-29" d="M 513 4856 
L 1013 4856 
Q 1481 4119 1714 3412 
Q 1947 2706 1947 2009 
Q 1947 1309 1714 600 
Q 1481 -109 1013 -844 
L 513 -844 
Q 928 -128 1133 580 
Q 1338 1288 1338 2009 
Q 1338 2731 1133 3434 
Q 928 4138 513 4856 
z
" transform="scale(0.015625)"/>
      </defs>
      <use xlink:href="#DejaVuSans-76"/>
      <use xlink:href="#DejaVuSans-32" transform="translate(59.179688 0)"/>
      <use xlink:href="#DejaVuSans-20" transform="translate(122.802734 0)"/>
      <use xlink:href="#DejaVuSans-72" transform="translate(154.589844 0)"/>
      <use xlink:href="#DejaVuSans-3d" transform="translate(195.703125 0)"/>
      <use xlink:href="#DejaVuSans-33" transform="translate(279.492188 0)"/>
      <use xlink:href="#DejaVuSans-32" transform="translate(343.115234 0)"/>
      <use xlink:href="#DejaVuSans-20" transform="translate(406.738281 0)"/>
      <use xlink:href="#DejaVuSans-3b1" transform="translate(438.525391 0)"/>
      <use xlink:href="#DejaVuSans-3d" transform="translate(504.443359 0)"/>
      <use xlink:href="#DejaVuSans-36" transform="translate(588.232422 0)"/>
      <use xlink:href="#DejaVuSans-34" transform="translate(651.855469 0)"/>
      <use xlink:href="#DejaVuSans-20" transform="translate(715.478516 0)"/>
      <use xlink:href="#DejaVuSans-28" transform="translate(747.265625 0)"/>
      <use xlink:href="#DejaVuSans-6e" transform="translate(786.279297 0)"/>
      <use xlink:href="#DejaVuSans-3d" transform="translate(849.658203 0)"/>
      <use xlink:href="#DejaVuSans-31" transform="translate(933.447266 0)"/>
      <use xlink:href="#DejaVuSans-30" transform="translate(997.070312 0)"/>
      <use xlink:href="#DejaVuSans-30" transform="translate(1060.693359 0)"/>
      <use xlink:href="#DejaVuSans-30" transform="translate(1124.316406 0)"/>
      <use xlink:href="#DejaVuSans-29" transform="translate(1187.939453 0)"/>
     </g>
    </g>
    <g id="line2d_32">
     <path d="M 219.41397 50.094687 
L 229.41397 50.094687 
L 239.41397 50.094687 
" style="fill: none; stroke: #a1d99b; stroke-width: 1.6; stroke-linecap: square"/>
    </g>
    <g id="text_19">
     <!-- v3 r=64 α=128 (n=2189) -->
     <g transform="translate(247.41397 53.594687) scale(0.1 -0.1)">
      <defs>
       <path id="DejaVuSans-39" d="M 703 97 
L 703 672 
Q 941 559 1184 500 
Q 1428 441 1663 441 
Q 2288 441 2617 861 
Q 2947 1281 2994 2138 
Q 2813 1869 2534 1725 
Q 2256 1581 1919 1581 
Q 1219 1581 811 2004 
Q 403 2428 403 3163 
Q 403 3881 828 4315 
Q 1253 4750 1959 4750 
Q 2769 4750 3195 4129 
Q 3622 3509 3622 2328 
Q 3622 1225 3098 567 
Q 2575 -91 1691 -91 
Q 1453 -91 1209 -44 
Q 966 3 703 97 
z
M 1959 2075 
Q 2384 2075 2632 2365 
Q 2881 2656 2881 3163 
Q 2881 3666 2632 3958 
Q 2384 4250 1959 4250 
Q 1534 4250 1286 3958 
Q 1038 3666 1038 3163 
Q 1038 2656 1286 2365 
Q 1534 2075 1959 2075 
z
" transform="scale(0.015625)"/>
      </defs>
      <use xlink:href="#DejaVuSans-76"/>
      <use xlink:href="#DejaVuSans-33" transform="translate(59.179688 0)"/>
      <use xlink:href="#DejaVuSans-20" transform="translate(122.802734 0)"/>
      <use xlink:href="#DejaVuSans-72" transform="translate(154.589844 0)"/>
      <use xlink:href="#DejaVuSans-3d" transform="translate(195.703125 0)"/>
      <use xlink:href="#DejaVuSans-36" transform="translate(279.492188 0)"/>
      <use xlink:href="#DejaVuSans-34" transform="translate(343.115234 0)"/>
      <use xlink:href="#DejaVuSans-20" transform="translate(406.738281 0)"/>
      <use xlink:href="#DejaVuSans-3b1" transform="translate(438.525391 0)"/>
      <use xlink:href="#DejaVuSans-3d" transform="translate(504.443359 0)"/>
      <use xlink:href="#DejaVuSans-31" transform="translate(588.232422 0)"/>
      <use xlink:href="#DejaVuSans-32" transform="translate(651.855469 0)"/>
      <use xlink:href="#DejaVuSans-38" transform="translate(715.478516 0)"/>
      <use xlink:href="#DejaVuSans-20" transform="translate(779.101562 0)"/>
      <use xlink:href="#DejaVuSans-28" transform="translate(810.888672 0)"/>
      <use xlink:href="#DejaVuSans-6e" transform="translate(849.902344 0)"/>
      <use xlink:href="#DejaVuSans-3d" transform="translate(913.28125 0)"/>
      <use xlink:href="#DejaVuSans-32" transform="translate(997.070312 0)"/>
      <use xlink:href="#DejaVuSans-31" transform="translate(1060.693359 0)"/>
      <use xlink:href="#DejaVuSans-38" transform="translate(1124.316406 0)"/>
      <use xlink:href="#DejaVuSans-39" transform="translate(1187.939453 0)"/>
      <use xlink:href="#DejaVuSans-29" transform="translate(1251.5625 0)"/>
     </g>
    </g>
   </g>
  </g>
  <g id="axes_2">
   <g id="patch_7">
    <path d="M 435.567592 227.078125 
L 777.26125 227.078125 
L 777.26125 22.318125 
L 435.567592 22.318125 
z
" style="fill: #ffffff"/>
   </g>
   <g id="matplotlib.axis_3">
    <g id="xtick_10">
     <g id="line2d_33">
      <path d="M 449.193413 227.078125 
L 449.193413 22.318125 
" clip-path="url(#p812dd8eac9)" style="fill: none; stroke: #b0b0b0; stroke-opacity: 0.3; stroke-width: 0.8; stroke-linecap: square"/>
     </g>
     <g id="line2d_34">
      <g>
       <use xlink:href="#m313163af83" x="449.193413" y="227.078125" style="stroke: #000000; stroke-width: 0.8"/>
      </g>
     </g>
     <g id="text_20">
      <!-- 0 -->
      <g transform="translate(446.012163 241.676562) scale(0.1 -0.1)">
       <use xlink:href="#DejaVuSans-30"/>
      </g>
     </g>
    </g>
    <g id="xtick_11">
     <g id="line2d_35">
      <path d="M 487.307597 227.078125 
L 487.307597 22.318125 
" clip-path="url(#p812dd8eac9)" style="fill: none; stroke: #b0b0b0; stroke-opacity: 0.3; stroke-width: 0.8; stroke-linecap: square"/>
     </g>
     <g id="line2d_36">
      <g>
       <use xlink:href="#m313163af83" x="487.307597" y="227.078125" style="stroke: #000000; stroke-width: 0.8"/>
      </g>
     </g>
     <g id="text_21">
      <!-- 100 -->
      <g transform="translate(477.763847 241.676562) scale(0.1 -0.1)">
       <use xlink:href="#DejaVuSans-31"/>
       <use xlink:href="#DejaVuSans-30" transform="translate(63.623047 0)"/>
       <use xlink:href="#DejaVuSans-30" transform="translate(127.246094 0)"/>
      </g>
     </g>
    </g>
    <g id="xtick_12">
     <g id="line2d_37">
      <path d="M 525.421781 227.078125 
L 525.421781 22.318125 
" clip-path="url(#p812dd8eac9)" style="fill: none; stroke: #b0b0b0; stroke-opacity: 0.3; stroke-width: 0.8; stroke-linecap: square"/>
     </g>
     <g id="line2d_38">
      <g>
       <use xlink:href="#m313163af83" x="525.421781" y="227.078125" style="stroke: #000000; stroke-width: 0.8"/>
      </g>
     </g>
     <g id="text_22">
      <!-- 200 -->
      <g transform="translate(515.878031 241.676562) scale(0.1 -0.1)">
       <use xlink:href="#DejaVuSans-32"/>
       <use xlink:href="#DejaVuSans-30" transform="translate(63.623047 0)"/>
       <use xlink:href="#DejaVuSans-30" transform="translate(127.246094 0)"/>
      </g>
     </g>
    </g>
    <g id="xtick_13">
     <g id="line2d_39">
      <path d="M 563.535964 227.078125 
L 563.535964 22.318125 
" clip-path="url(#p812dd8eac9)" style="fill: none; stroke: #b0b0b0; stroke-opacity: 0.3; stroke-width: 0.8; stroke-linecap: square"/>
     </g>
     <g id="line2d_40">
      <g>
       <use xlink:href="#m313163af83" x="563.535964" y="227.078125" style="stroke: #000000; stroke-width: 0.8"/>
      </g>
     </g>
     <g id="text_23">
      <!-- 300 -->
      <g transform="translate(553.992214 241.676562) scale(0.1 -0.1)">
       <use xlink:href="#DejaVuSans-33"/>
       <use xlink:href="#DejaVuSans-30" transform="translate(63.623047 0)"/>
       <use xlink:href="#DejaVuSans-30" transform="translate(127.246094 0)"/>
      </g>
     </g>
    </g>
    <g id="xtick_14">
     <g id="line2d_41">
      <path d="M 601.650148 227.078125 
L 601.650148 22.318125 
" clip-path="url(#p812dd8eac9)" style="fill: none; stroke: #b0b0b0; stroke-opacity: 0.3; stroke-width: 0.8; stroke-linecap: square"/>
     </g>
     <g id="line2d_42">
      <g>
       <use xlink:href="#m313163af83" x="601.650148" y="227.078125" style="stroke: #000000; stroke-width: 0.8"/>
      </g>
     </g>
     <g id="text_24">
      <!-- 400 -->
      <g transform="translate(592.106398 241.676562) scale(0.1 -0.1)">
       <use xlink:href="#DejaVuSans-34"/>
       <use xlink:href="#DejaVuSans-30" transform="translate(63.623047 0)"/>
       <use xlink:href="#DejaVuSans-30" transform="translate(127.246094 0)"/>
      </g>
     </g>
    </g>
    <g id="xtick_15">
     <g id="line2d_43">
      <path d="M 639.764332 227.078125 
L 639.764332 22.318125 
" clip-path="url(#p812dd8eac9)" style="fill: none; stroke: #b0b0b0; stroke-opacity: 0.3; stroke-width: 0.8; stroke-linecap: square"/>
     </g>
     <g id="line2d_44">
      <g>
       <use xlink:href="#m313163af83" x="639.764332" y="227.078125" style="stroke: #000000; stroke-width: 0.8"/>
      </g>
     </g>
     <g id="text_25">
      <!-- 500 -->
      <g transform="translate(630.220582 241.676562) scale(0.1 -0.1)">
       <use xlink:href="#DejaVuSans-35"/>
       <use xlink:href="#DejaVuSans-30" transform="translate(63.623047 0)"/>
       <use xlink:href="#DejaVuSans-30" transform="translate(127.246094 0)"/>
      </g>
     </g>
    </g>
    <g id="xtick_16">
     <g id="line2d_45">
      <path d="M 677.878516 227.078125 
L 677.878516 22.318125 
" clip-path="url(#p812dd8eac9)" style="fill: none; stroke: #b0b0b0; stroke-opacity: 0.3; stroke-width: 0.8; stroke-linecap: square"/>
     </g>
     <g id="line2d_46">
      <g>
       <use xlink:href="#m313163af83" x="677.878516" y="227.078125" style="stroke: #000000; stroke-width: 0.8"/>
      </g>
     </g>
     <g id="text_26">
      <!-- 600 -->
      <g transform="translate(668.334766 241.676562) scale(0.1 -0.1)">
       <use xlink:href="#DejaVuSans-36"/>
       <use xlink:href="#DejaVuSans-30" transform="translate(63.623047 0)"/>
       <use xlink:href="#DejaVuSans-30" transform="translate(127.246094 0)"/>
      </g>
     </g>
    </g>
    <g id="xtick_17">
     <g id="line2d_47">
      <path d="M 715.9927 227.078125 
L 715.9927 22.318125 
" clip-path="url(#p812dd8eac9)" style="fill: none; stroke: #b0b0b0; stroke-opacity: 0.3; stroke-width: 0.8; stroke-linecap: square"/>
     </g>
     <g id="line2d_48">
      <g>
       <use xlink:href="#m313163af83" x="715.9927" y="227.078125" style="stroke: #000000; stroke-width: 0.8"/>
      </g>
     </g>
     <g id="text_27">
      <!-- 700 -->
      <g transform="translate(706.44895 241.676562) scale(0.1 -0.1)">
       <use xlink:href="#DejaVuSans-37"/>
       <use xlink:href="#DejaVuSans-30" transform="translate(63.623047 0)"/>
       <use xlink:href="#DejaVuSans-30" transform="translate(127.246094 0)"/>
      </g>
     </g>
    </g>
    <g id="xtick_18">
     <g id="line2d_49">
      <path d="M 754.106883 227.078125 
L 754.106883 22.318125 
" clip-path="url(#p812dd8eac9)" style="fill: none; stroke: #b0b0b0; stroke-opacity: 0.3; stroke-width: 0.8; stroke-linecap: square"/>
     </g>
     <g id="line2d_50">
      <g>
       <use xlink:href="#m313163af83" x="754.106883" y="227.078125" style="stroke: #000000; stroke-width: 0.8"/>
      </g>
     </g>
     <g id="text_28">
      <!-- 800 -->
      <g transform="translate(744.563133 241.676562) scale(0.1 -0.1)">
       <use xlink:href="#DejaVuSans-38"/>
       <use xlink:href="#DejaVuSans-30" transform="translate(63.623047 0)"/>
       <use xlink:href="#DejaVuSans-30" transform="translate(127.246094 0)"/>
      </g>
     </g>
    </g>
    <g id="text_29">
     <!-- step -->
     <g transform="translate(595.598796 255.354687) scale(0.1 -0.1)">
      <use xlink:href="#DejaVuSans-73"/>
      <use xlink:href="#DejaVuSans-74" transform="translate(52.099609 0)"/>
      <use xlink:href="#DejaVuSans-65" transform="translate(91.308594 0)"/>
      <use xlink:href="#DejaVuSans-70" transform="translate(152.832031 0)"/>
     </g>
    </g>
   </g>
   <g id="matplotlib.axis_4">
    <g id="ytick_6">
     <g id="line2d_51">
      <path d="M 435.567592 106.439345 
L 777.26125 106.439345 
" clip-path="url(#p812dd8eac9)" style="fill: none; stroke: #b0b0b0; stroke-opacity: 0.3; stroke-width: 0.8; stroke-linecap: square"/>
     </g>
     <g id="line2d_52">
      <g>
       <use xlink:href="#m476cd0e049" x="435.567592" y="106.439345" style="stroke: #000000; stroke-width: 0.8"/>
      </g>
     </g>
     <g id="text_30">
      <!-- $\mathdefault{10^{0}}$ -->
      <g transform="translate(410.967592 110.238564) scale(0.1 -0.1)">
       <use xlink:href="#DejaVuSans-31" transform="translate(0 0.765625)"/>
       <use xlink:href="#DejaVuSans-30" transform="translate(63.623047 0.765625)"/>
       <use xlink:href="#DejaVuSans-30" transform="translate(128.203125 39.046875) scale(0.7)"/>
      </g>
     </g>
    </g>
    <g id="ytick_7">
     <g id="line2d_53">
      <path d="M 435.567592 198.323519 
L 777.26125 198.323519 
" clip-path="url(#p812dd8eac9)" style="fill: none; stroke: #b0b0b0; stroke-opacity: 0.3; stroke-width: 0.8; stroke-linecap: square"/>
     </g>
     <g id="line2d_54">
      <defs>
       <path id="mfe4e554a05" d="M 0 0 
L -2 0 
" style="stroke: #000000; stroke-width: 0.6"/>
      </defs>
      <g>
       <use xlink:href="#mfe4e554a05" x="435.567592" y="198.323519" style="stroke: #000000; stroke-width: 0.6"/>
      </g>
     </g>
    </g>
    <g id="ytick_8">
     <g id="line2d_55">
      <path d="M 435.567592 176.368347 
L 777.26125 176.368347 
" clip-path="url(#p812dd8eac9)" style="fill: none; stroke: #b0b0b0; stroke-opacity: 0.3; stroke-width: 0.8; stroke-linecap: square"/>
     </g>
     <g id="line2d_56">
      <g>
       <use xlink:href="#mfe4e554a05" x="435.567592" y="176.368347" style="stroke: #000000; stroke-width: 0.6"/>
      </g>
     </g>
    </g>
    <g id="ytick_9">
     <g id="line2d_57">
      <path d="M 435.567592 159.338593 
L 777.26125 159.338593 
" clip-path="url(#p812dd8eac9)" style="fill: none; stroke: #b0b0b0; stroke-opacity: 0.3; stroke-width: 0.8; stroke-linecap: square"/>
     </g>
     <g id="line2d_58">
      <g>
       <use xlink:href="#mfe4e554a05" x="435.567592" y="159.338593" style="stroke: #000000; stroke-width: 0.6"/>
      </g>
     </g>
    </g>
    <g id="ytick_10">
     <g id="line2d_59">
      <path d="M 435.567592 145.424271 
L 777.26125 145.424271 
" clip-path="url(#p812dd8eac9)" style="fill: none; stroke: #b0b0b0; stroke-opacity: 0.3; stroke-width: 0.8; stroke-linecap: square"/>
     </g>
     <g id="line2d_60">
      <g>
       <use xlink:href="#mfe4e554a05" x="435.567592" y="145.424271" style="stroke: #000000; stroke-width: 0.6"/>
      </g>
     </g>
    </g>
    <g id="ytick_11">
     <g id="line2d_61">
      <path d="M 435.567592 133.659879 
L 777.26125 133.659879 
" clip-path="url(#p812dd8eac9)" style="fill: none; stroke: #b0b0b0; stroke-opacity: 0.3; stroke-width: 0.8; stroke-linecap: square"/>
     </g>
     <g id="line2d_62">
      <g>
       <use xlink:href="#mfe4e554a05" x="435.567592" y="133.659879" style="stroke: #000000; stroke-width: 0.6"/>
      </g>
     </g>
    </g>
    <g id="ytick_12">
     <g id="line2d_63">
      <path d="M 435.567592 123.469099 
L 777.26125 123.469099 
" clip-path="url(#p812dd8eac9)" style="fill: none; stroke: #b0b0b0; stroke-opacity: 0.3; stroke-width: 0.8; stroke-linecap: square"/>
     </g>
     <g id="line2d_64">
      <g>
       <use xlink:href="#mfe4e554a05" x="435.567592" y="123.469099" style="stroke: #000000; stroke-width: 0.6"/>
      </g>
     </g>
    </g>
    <g id="ytick_13">
     <g id="line2d_65">
      <path d="M 435.567592 114.480194 
L 777.26125 114.480194 
" clip-path="url(#p812dd8eac9)" style="fill: none; stroke: #b0b0b0; stroke-opacity: 0.3; stroke-width: 0.8; stroke-linecap: square"/>
     </g>
     <g id="line2d_66">
      <g>
       <use xlink:href="#mfe4e554a05" x="435.567592" y="114.480194" style="stroke: #000000; stroke-width: 0.6"/>
      </g>
     </g>
    </g>
    <g id="ytick_14">
     <g id="line2d_67">
      <path d="M 435.567592 53.540097 
L 777.26125 53.540097 
" clip-path="url(#p812dd8eac9)" style="fill: none; stroke: #b0b0b0; stroke-opacity: 0.3; stroke-width: 0.8; stroke-linecap: square"/>
     </g>
     <g id="line2d_68">
      <g>
       <use xlink:href="#mfe4e554a05" x="435.567592" y="53.540097" style="stroke: #000000; stroke-width: 0.6"/>
      </g>
     </g>
    </g>
    <g id="ytick_15">
     <g id="line2d_69">
      <path d="M 435.567592 22.596021 
L 777.26125 22.596021 
" clip-path="url(#p812dd8eac9)" style="fill: none; stroke: #b0b0b0; stroke-opacity: 0.3; stroke-width: 0.8; stroke-linecap: square"/>
     </g>
     <g id="line2d_70">
      <g>
       <use xlink:href="#mfe4e554a05" x="435.567592" y="22.596021" style="stroke: #000000; stroke-width: 0.6"/>
      </g>
     </g>
    </g>
    <g id="text_31">
     <!-- loss (log) -->
     <g transform="translate(404.887905 147.469219) rotate(-90) scale(0.1 -0.1)">
      <use xlink:href="#DejaVuSans-6c"/>
      <use xlink:href="#DejaVuSans-6f" transform="translate(27.783203 0)"/>
      <use xlink:href="#DejaVuSans-73" transform="translate(88.964844 0)"/>
      <use xlink:href="#DejaVuSans-73" transform="translate(141.064453 0)"/>
      <use xlink:href="#DejaVuSans-20" transform="translate(193.164062 0)"/>
      <use xlink:href="#DejaVuSans-28" transform="translate(224.951172 0)"/>
      <use xlink:href="#DejaVuSans-6c" transform="translate(263.964844 0)"/>
      <use xlink:href="#DejaVuSans-6f" transform="translate(291.748047 0)"/>
      <use xlink:href="#DejaVuSans-67" transform="translate(352.929688 0)"/>
      <use xlink:href="#DejaVuSans-29" transform="translate(416.40625 0)"/>
     </g>
    </g>
   </g>
   <g id="line2d_71">
    <path d="M 451.099122 31.625398 
L 453.004831 63.170364 
L 454.910541 97.102013 
L 456.81625 140.839732 
L 458.721959 157.63122 
L 460.627668 167.717632 
L 462.533377 172.968594 
L 464.439087 179.791016 
L 466.344796 182.092182 
L 468.250505 183.886417 
L 470.156214 184.714822 
L 472.061923 185.215016 
L 473.967633 184.584015 
L 475.873342 186.973992 
L 477.779051 187.21199 
L 479.68476 186.650273 
L 481.590469 188.635415 
L 483.496178 187.337242 
L 485.401888 189.69985 
L 487.307597 191.105788 
L 489.213306 187.211812 
L 491.119015 189.370997 
L 493.024724 189.320814 
L 494.930434 188.199179 
L 496.836143 188.819496 
L 498.741852 197.924433 
L 500.647561 196.320911 
L 502.55327 196.279854 
L 504.45898 197.233957 
L 506.364689 194.368123 
L 508.270398 199.020388 
L 510.176107 198.705115 
L 512.081816 198.291277 
L 513.987526 197.942542 
L 515.893235 196.533543 
L 517.798944 196.947309 
L 519.704653 197.156541 
L 521.610362 194.19988 
L 523.516071 199.115032 
L 525.421781 198.408988 
L 527.32749 200.025985 
L 529.233199 195.43258 
L 531.138908 198.242677 
L 533.044617 200.39798 
L 534.950327 198.966104 
L 536.856036 198.082585 
L 538.761745 198.471203 
L 540.667454 200.118321 
L 542.573163 199.640545 
L 544.478873 199.095767 
L 546.384582 209.100631 
L 548.290291 205.910789 
L 550.196 207.905434 
L 552.101709 208.697944 
L 554.007418 206.929151 
L 555.913128 207.24747 
L 557.818837 211.69785 
L 559.724546 207.366898 
L 561.630255 210.63941 
L 563.535964 209.203108 
L 565.441674 209.864488 
L 567.347383 209.985696 
L 569.253092 209.978107 
L 571.158801 208.822003 
L 573.06451 208.843379 
L 574.97022 208.907334 
L 576.875929 210.788324 
L 578.781638 210.994063 
L 580.687347 210.934825 
L 582.593056 211.460455 
L 584.498766 210.360137 
L 586.404475 208.349608 
L 588.310184 210.656218 
L 590.215893 209.365132 
L 592.121602 208.843058 
" clip-path="url(#p812dd8eac9)" style="fill: none; stroke: #fdae6b; stroke-width: 1.6; stroke-linecap: square"/>
   </g>
   <g id="line2d_72">
    <path d="M 451.099122 35.31742 
L 453.004831 76.767027 
L 454.910541 125.372405 
L 456.81625 157.500163 
L 458.721959 166.922111 
L 460.627668 173.426281 
L 462.533377 176.790868 
L 464.439087 181.684033 
L 466.344796 185.075665 
L 468.250505 182.137903 
L 470.156214 184.185641 
L 472.061923 186.621397 
L 473.967633 184.800031 
L 475.873342 184.079849 
L 477.779051 187.902819 
L 479.68476 189.306601 
L 481.590469 186.826085 
L 483.496178 188.272648 
L 485.401888 190.414825 
L 487.307597 185.733864 
L 489.213306 190.204107 
L 491.119015 188.690277 
L 493.024724 188.295125 
L 494.930434 187.766928 
L 496.836143 191.716891 
L 498.741852 189.040227 
L 500.647561 189.833596 
L 502.55327 192.719618 
L 504.45898 189.182317 
L 506.364689 191.237956 
L 510.176107 190.365633 
L 512.081816 190.489222 
L 513.987526 193.000033 
L 515.893235 190.800238 
L 517.798944 191.301221 
L 519.704653 192.079472 
L 521.610362 190.945476 
L 523.516071 191.783444 
L 525.421781 190.09519 
L 527.32749 192.90439 
L 529.233199 192.385052 
L 531.138908 191.611904 
L 533.044617 191.521707 
L 534.950327 193.815073 
L 536.856036 193.641637 
L 538.761745 190.732752 
L 540.667454 194.47898 
L 542.573163 192.919538 
L 544.478873 191.928592 
L 546.384582 192.73646 
L 548.290291 194.797665 
L 550.196 190.83477 
L 554.007418 195.608441 
L 555.913128 200.021787 
L 557.818837 199.628581 
L 559.724546 199.713407 
L 561.630255 198.908729 
L 563.535964 199.311676 
L 567.347383 201.556121 
L 569.253092 199.04528 
L 571.158801 200.755603 
L 573.06451 200.283143 
L 574.97022 198.910238 
L 576.875929 199.072298 
L 578.781638 200.406058 
L 580.687347 198.776845 
L 582.593056 199.177052 
L 584.498766 198.803067 
L 586.404475 198.94141 
L 588.310184 200.962785 
L 590.215893 201.537539 
L 592.121602 200.149325 
L 594.027311 200.659205 
L 595.933021 198.652766 
L 597.83873 201.848292 
L 599.744439 198.710681 
L 601.650148 201.126121 
L 603.555857 201.142873 
L 605.461567 201.905055 
L 607.367276 199.859903 
L 609.272985 201.060637 
L 611.178694 200.86119 
L 613.084403 201.345298 
L 614.990113 202.077271 
L 616.895822 201.65148 
L 618.801531 203.297803 
L 620.70724 200.534259 
L 622.612949 201.963672 
L 624.518658 202.432826 
L 626.424368 203.961283 
L 628.330077 202.544972 
L 630.235786 201.342364 
L 632.141495 200.973202 
L 634.047204 201.001151 
L 635.952914 203.498374 
L 637.858623 200.460316 
L 639.764332 203.001736 
L 641.670041 201.882873 
L 643.57575 202.766384 
L 645.48146 201.80741 
L 647.387169 201.137159 
L 649.292878 204.507445 
L 651.198587 203.77338 
L 653.104296 205.564 
L 655.010006 203.156775 
L 656.915715 201.025616 
L 658.821424 205.752098 
L 660.727133 211.369927 
L 662.632842 212.666535 
L 664.538551 213.128484 
L 666.444261 212.81526 
L 668.34997 214.104609 
L 670.255679 211.933064 
L 672.161388 210.636751 
L 674.067097 212.4698 
L 675.972807 211.764388 
L 677.878516 214.288546 
L 679.784225 215.340261 
L 681.689934 213.99814 
L 683.595643 213.633241 
L 685.501353 213.924388 
L 687.407062 212.917139 
L 689.312771 212.895662 
L 691.21848 213.441335 
L 693.124189 213.744145 
L 695.029898 213.467825 
L 696.935608 214.223604 
L 698.841317 214.745412 
L 700.747026 212.964275 
L 702.652735 213.648008 
L 704.558444 214.678509 
L 706.464154 213.146741 
L 708.369863 215.455939 
L 710.275572 213.944175 
L 712.181281 215.567724 
L 714.08699 215.777706 
L 715.9927 214.583305 
L 717.898409 215.515177 
L 719.804118 215.200134 
L 721.709827 215.183944 
L 723.615536 213.675652 
L 725.521246 216.071464 
L 727.426955 215.641393 
L 729.332664 216.393952 
L 731.238373 215.505832 
L 735.049791 216.710684 
L 736.955501 215.039256 
L 738.86121 215.412064 
L 740.766919 214.754032 
L 742.672628 216.961908 
L 744.578337 215.458717 
L 746.484047 214.198016 
L 748.389756 216.791707 
L 750.295465 214.292853 
L 752.201174 217.770852 
L 754.106883 213.785631 
L 756.012593 215.111176 
L 757.918302 216.09484 
L 759.824011 216.670031 
L 761.72972 215.224297 
L 761.72972 215.224297 
" clip-path="url(#p812dd8eac9)" style="fill: none; stroke: #a1d99b; stroke-width: 1.6; stroke-linecap: square"/>
   </g>
   <g id="patch_8">
    <path d="M 435.567592 227.078125 
L 435.567592 22.318125 
" style="fill: none; stroke: #000000; stroke-width: 0.8; stroke-linejoin: miter; stroke-linecap: square"/>
   </g>
   <g id="patch_9">
    <path d="M 777.26125 227.078125 
L 777.26125 22.318125 
" style="fill: none; stroke: #000000; stroke-width: 0.8; stroke-linejoin: miter; stroke-linecap: square"/>
   </g>
   <g id="patch_10">
    <path d="M 435.567592 227.078125 
L 777.26125 227.078125 
" style="fill: none; stroke: #000000; stroke-width: 0.8; stroke-linejoin: miter; stroke-linecap: square"/>
   </g>
   <g id="patch_11">
    <path d="M 435.567592 22.318125 
L 777.26125 22.318125 
" style="fill: none; stroke: #000000; stroke-width: 0.8; stroke-linejoin: miter; stroke-linecap: square"/>
   </g>
   <g id="text_32">
    <!-- same, log-y -->
    <g transform="translate(571.503796 16.318125) scale(0.12 -0.12)">
     <defs>
      <path id="DejaVuSans-6d" d="M 3328 2828 
Q 3544 3216 3844 3400 
Q 4144 3584 4550 3584 
Q 5097 3584 5394 3201 
Q 5691 2819 5691 2113 
L 5691 0 
L 5113 0 
L 5113 2094 
Q 5113 2597 4934 2840 
Q 4756 3084 4391 3084 
Q 3944 3084 3684 2787 
Q 3425 2491 3425 1978 
L 3425 0 
L 2847 0 
L 2847 2094 
Q 2847 2600 2669 2842 
Q 2491 3084 2119 3084 
Q 1678 3084 1418 2786 
Q 1159 2488 1159 1978 
L 1159 0 
L 581 0 
L 581 3500 
L 1159 3500 
L 1159 2956 
Q 1356 3278 1631 3431 
Q 1906 3584 2284 3584 
Q 2666 3584 2933 3390 
Q 3200 3197 3328 2828 
z
" transform="scale(0.015625)"/>
      <path id="DejaVuSans-2c" d="M 750 794 
L 1409 794 
L 1409 256 
L 897 -744 
L 494 -744 
L 750 256 
L 750 794 
z
" transform="scale(0.015625)"/>
      <path id="DejaVuSans-2d" d="M 313 2009 
L 1997 2009 
L 1997 1497 
L 313 1497 
L 313 2009 
z
" transform="scale(0.015625)"/>
      <path id="DejaVuSans-79" d="M 2059 -325 
Q 1816 -950 1584 -1140 
Q 1353 -1331 966 -1331 
L 506 -1331 
L 506 -850 
L 844 -850 
Q 1081 -850 1212 -737 
Q 1344 -625 1503 -206 
L 1606 56 
L 191 3500 
L 800 3500 
L 1894 763 
L 2988 3500 
L 3597 3500 
L 2059 -325 
z
" transform="scale(0.015625)"/>
     </defs>
     <use xlink:href="#DejaVuSans-73"/>
     <use xlink:href="#DejaVuSans-61" transform="translate(52.099609 0)"/>
     <use xlink:href="#DejaVuSans-6d" transform="translate(113.378906 0)"/>
     <use xlink:href="#DejaVuSans-65" transform="translate(210.791016 0)"/>
     <use xlink:href="#DejaVuSans-2c" transform="translate(272.314453 0)"/>
     <use xlink:href="#DejaVuSans-20" transform="translate(304.101562 0)"/>
     <use xlink:href="#DejaVuSans-6c" transform="translate(335.888672 0)"/>
     <use xlink:href="#DejaVuSans-6f" transform="translate(363.671875 0)"/>
     <use xlink:href="#DejaVuSans-67" transform="translate(424.853516 0)"/>
     <use xlink:href="#DejaVuSans-2d" transform="translate(488.330078 0)"/>
     <use xlink:href="#DejaVuSans-79" transform="translate(522.664062 0)"/>
    </g>
   </g>
   <g id="legend_2">
    <g id="line2d_73">
     <path d="M 727.98 35.416562 
L 737.98 35.416562 
L 747.98 35.416562 
" style="fill: none; stroke: #fdae6b; stroke-width: 1.6; stroke-linecap: square"/>
    </g>
    <g id="text_33">
     <!-- v2 -->
     <g transform="translate(755.98 38.916562) scale(0.1 -0.1)">
      <use xlink:href="#DejaVuSans-76"/>
      <use xlink:href="#DejaVuSans-32" transform="translate(59.179688 0)"/>
     </g>
    </g>
    <g id="line2d_74">
     <path d="M 727.98 50.094687 
L 737.98 50.094687 
L 747.98 50.094687 
" style="fill: none; stroke: #a1d99b; stroke-width: 1.6; stroke-linecap: square"/>
    </g>
    <g id="text_34">
     <!-- v3 -->
     <g transform="translate(755.98 53.594687) scale(0.1 -0.1)">
      <use xlink:href="#DejaVuSans-76"/>
      <use xlink:href="#DejaVuSans-33" transform="translate(59.179688 0)"/>
     </g>
    </g>
   </g>
  </g>
 </g>
 <defs>
  <clipPath id="p6310bb8087">
   <rect x="43.78125" y="22.318125" width="341.693658" height="204.76"/>
  </clipPath>
  <clipPath id="p812dd8eac9">
   <rect x="435.567592" y="22.318125" width="341.693658" height="204.76"/>
  </clipPath>
 </defs>
</svg>
